<?xml version="1.0" encoding="UTF-8"?>
<svg width="179px" height="60px" viewBox="0 0 179 60" version="1.1" xmlns="http://www.w3.org/2000/svg" xmlns:xlink="http://www.w3.org/1999/xlink">
    <!-- Generator: Sketch 46.2 (44496) - http://www.bohemiancoding.com/sketch -->
    <title>LOGO</title>
    <desc>Created with Sketch.</desc>
    <defs></defs>
    <g id="Home" stroke="none" stroke-width="1" fill="none" fill-rule="evenodd">
        <g transform="translate(-32.000000, -16.000000)" id="HEADER" fill="#FFFFFF">
            <g transform="translate(-264.000000, -130.000000)">
                <g id="LOGO" transform="translate(296.000000, 146.000000)">
                    <g id="Group-3">
                        <g id="np_home_1031982_000000" transform="translate(18.425775, 0.000000)" fill-rule="nonzero">
                            <path d="M13.0328651,19.911316 L13.0328651,15.9290528 L12.1340468,15.9290528 L12.1340468,19.911316 L8.53877368,19.911316 L8.53877368,20.7962634 L12.1340468,20.7962634 L12.1340468,24.3360529 L13.0328651,24.3360529 L13.0328651,20.7962634 L17.0775474,20.7962634 L17.0775474,19.911316 L13.0328651,19.911316 Z M24.7175028,13.2742107 L22.9198662,13.2742107 L12.5834559,2.21236845 L1.79763656,13.2742107 L0,13.2742107 L12.5834559,0 L24.7175028,13.2742107 Z" id="Combined-Shape"></path>
                            <path d="M22.4704571,14.6016318 L12.5834559,3.98226321 L2.24704571,14.6016318 L2.24704571,34.9554215 L22.4704571,34.9554215 L22.4704571,14.6016318 Z M15.7293199,23.8935792 L9.43759196,23.8935792 L9.43759196,16.8140002 L15.7293199,16.8140002 L15.7293199,23.8935792 Z" id="Shape"></path>
                        </g>
                        <g id="np_home_1031982_000000" transform="translate(42.693868, 14.601632)" fill-rule="nonzero">
                            <path d="M7.02537299,11.9467896 L7.02537299,9.73442117 L6.74113712,9.73442117 L6.74113712,11.9467896 L4.49409141,11.9467896 L4.49409141,12.2260871 L6.74113712,12.2260871 L6.74113712,14.6016318 L7.02537299,14.6016318 L7.02537299,12.2260871 L9.43759196,12.2260871 L9.43759196,11.9467896 L7.02537299,11.9467896 Z M15.2799108,7.96452641 L13.9316834,7.96452641 L7.19054626,1.32742107 L0,7.52205272 L0,6.19463165 L7.19054626,0 L15.2799108,7.96452641 Z" id="Combined-Shape"></path>
                            <path d="M7.19054626,2.73601012 L0,8.84947379 L0,24.7785266 L13.4822742,24.7785266 L13.4822742,8.84947379 L7.19054626,2.73601012 Z M8.98818282,14.1591581 L4.94350055,14.1591581 L4.94350055,10.1768949 L8.98818282,10.1768949 L8.98818282,14.1591581 Z" id="Shape"></path>
                        </g>
                        <g id="np_home_1031982_000000" transform="translate(10.875184, 27.101632) scale(-1, 1) translate(-10.875184, -27.101632) translate(2.875184, 14.601632)" fill-rule="nonzero">
                            <path d="M7.02537299,11.9467896 L7.02537299,9.73442117 L6.74113712,9.73442117 L6.74113712,11.9467896 L4.49409141,11.9467896 L4.49409141,12.2260871 L6.74113712,12.2260871 L6.74113712,14.6016318 L7.02537299,14.6016318 L7.02537299,12.2260871 L9.43759196,12.2260871 L9.43759196,11.9467896 L7.02537299,11.9467896 Z M15.2799108,7.96452641 L13.9316834,7.96452641 L7.19054626,1.32742107 L0,7.52205272 L0,6.19463165 L7.19054626,0 L15.2799108,7.96452641 Z" id="Combined-Shape"></path>
                            <path d="M7.19054626,2.73601012 L0,8.84947379 L0,24.7785266 L13.4822742,24.7785266 L13.4822742,8.84947379 L7.19054626,2.73601012 Z M8.98818282,14.1591581 L4.94350055,14.1591581 L4.94350055,10.1768949 L8.98818282,10.1768949 L8.98818282,14.1591581 Z" id="Shape"></path>
                        </g>
                        <path d="M5.68434189e-14,44.247369 C5.68434189e-14,44.247369 8.98818282,31.6436677 31.0092307,31.8581056 C53.0302786,32.0725436 61.5690523,42.4774742 61.5690523,43.3624216 C41.1613849,45.1883352 32.4213866,49.0472123 35.3490575,54.939053 L35.3490605,54.9390515 C36.0863501,56.4228224 35.4812074,58.2233477 33.9974365,58.9606373 C33.4389784,59.2381366 32.8079243,59.3347088 32.1920352,59.2369236 L14.9902621,56.5057853 L14.9902601,56.5057975 C13.6570516,56.294123 12.6294084,55.2180734 12.4792802,53.8765397 C11.6886351,46.8113984 20.112331,43.0117099 37.7503678,42.4774742 C33.2562764,37.4627724 20.6728205,38.0527373 5.68434189e-14,44.247369 Z" id="Path-2" transform="translate(30.784526, 45.564719) scale(-1, 1) translate(-30.784526, -45.564719) "></path>
                    </g>
                    <g id="Group-4" transform="translate(70.881327, 3.508772)">
                        <g id="Group">
                            <path d="M52.7771864,33.3152578 C51.0927137,34.1852705 49.1248255,34.8941592 46.8734629,35.441945 C44.6221004,35.9897308 42.1683139,36.2636196 39.51203,36.2636196 C36.7585649,36.2636196 34.2237954,35.8286197 31.9076454,34.958607 C29.5914954,34.0885942 27.5993124,32.8641502 25.9310365,31.2852381 C24.2627606,29.7063261 22.9589335,27.8132712 22.019516,25.6060166 C21.0800985,23.398762 20.6103968,20.9418184 20.6103968,18.235112 C20.6103968,15.4961829 21.0881968,13.0150726 22.0438111,10.7917067 C22.9994255,8.56834076 24.3194492,6.67528584 26.0039219,5.11248514 C27.6883947,3.54968444 29.6643811,2.34940706 31.9319406,1.51161699 C34.1995,0.673826929 36.6451882,0.25493818 39.2690784,0.25493818 C41.9901497,0.25493818 44.5168209,0.665771377 46.8491678,1.48745009 C49.1815146,2.30912881 51.076518,3.41273956 52.5342348,4.79831543 L47.2864806,10.7433729 C46.476638,9.80891475 45.4076617,9.04363723 44.0795197,8.44751738 C42.7513778,7.85139752 41.245093,7.55334207 39.5606203,7.55334207 C38.1029035,7.55334207 36.7585849,7.81917531 35.527624,8.35084978 C34.2966632,8.88252424 33.2276869,9.6236351 32.3206631,10.5742046 C31.4136393,11.5247741 30.7090868,12.6525515 30.2069843,13.9575706 C29.7048819,15.2625898 29.4538344,16.6884226 29.4538344,18.235112 C29.4538344,19.814024 29.680587,21.2640236 30.1340989,22.585154 C30.5876108,23.9062845 31.2597701,25.0421175 32.150597,25.992687 C33.0414239,26.9432565 34.1427934,27.6843673 35.4547385,28.2160418 C36.7666836,28.7477163 38.2648701,29.0135495 39.9493428,29.0135495 C40.921154,29.0135495 41.8443608,28.9410495 42.7189909,28.7960474 C43.5936209,28.6510453 44.4034515,28.4174343 45.1485067,28.0952073 L45.1485067,21.860147 L38.588814,21.860147 L38.588814,15.1900826 L52.7771864,15.1900826 L52.7771864,33.3152578 Z M73.5489818,20.6034682 C73.5489818,19.3467831 73.1521648,18.267339 72.358519,17.3651036 C71.5648732,16.4628681 70.3744224,16.0117572 68.7871308,16.0117572 C68.0096818,16.0117572 67.2970309,16.1325905 66.6491568,16.3742607 C66.0012827,16.6159309 65.4344013,16.9462085 64.9484957,17.3651036 C64.4625901,17.7839986 64.0738715,18.2753873 63.7823281,18.8392845 C63.4907848,19.4031817 63.3288187,19.991237 63.296425,20.6034682 L73.5489818,20.6034682 Z M80.8861196,23.6484977 L80.8861196,24.6151737 C80.8861196,24.9374006 80.869923,25.2435116 80.8375293,25.5335159 L63.296425,25.5335159 C63.3612124,26.2101925 63.56367,26.8224145 63.9038039,27.3702003 C64.2439378,27.9179861 64.6812463,28.3932637 65.2157425,28.7960474 C65.7502386,29.1988311 66.3495132,29.5129977 67.0135842,29.7385565 C67.6776552,29.9641154 68.3660111,30.0768931 69.0786727,30.0768931 C70.3420272,30.0768931 71.4110035,29.8432821 72.2856336,29.376053 C73.1602636,28.9088239 73.8729145,28.3046575 74.4236075,27.5635355 L79.9629036,31.0435691 C78.8291239,32.6869266 77.3309374,33.9516484 75.4682993,34.8377725 C73.6056612,35.7238966 71.4434137,36.166952 68.981492,36.166952 C67.1674445,36.166952 65.4506038,35.8850077 63.8309185,35.3211105 C62.2112331,34.7572133 60.7940297,33.9355469 59.5792657,32.8560867 C58.3645018,31.7766264 57.4089018,30.4474602 56.7124371,28.8685481 C56.0159724,27.2896361 55.6677453,25.4851922 55.6677453,23.4551625 C55.6677453,21.4895781 56.0078741,19.7093009 56.6881419,18.1142775 C57.3684097,16.5192541 58.2916165,15.1659212 59.45779,14.0542382 C60.6239634,12.9425553 62.0006753,12.0806111 63.5879669,11.4683799 C65.1752585,10.8561487 66.8920992,10.5500377 68.7385404,10.5500377 C70.5201943,10.5500377 72.1560519,10.8480932 73.6461624,11.444213 C75.1362729,12.0403329 76.4158051,12.902277 77.4847974,14.0300713 C78.5537897,15.1578657 79.3879152,16.5273096 79.9871987,18.1384444 C80.5864823,19.7495791 80.8861196,21.5862452 80.8861196,23.6484977 Z M99.4713507,35.3936112 L99.4713507,22.2468174 C99.4713507,21.5701408 99.4146626,20.9256966 99.3012846,20.3134654 C99.1879066,19.7012342 99.0016456,19.1615122 98.742496,18.6942831 C98.4833463,18.227054 98.1189226,17.8564986 97.6492138,17.5826057 C97.1795051,17.3087128 96.5883288,17.1717684 95.8756673,17.1717684 C95.1630057,17.1717684 94.5394362,17.3087128 94.0049401,17.5826057 C93.4704439,17.8564986 93.0250372,18.2351096 92.6687064,18.71845 C92.3123756,19.2017904 92.0451315,19.7576236 91.8669662,20.3859661 C91.6888008,21.0143087 91.5997194,21.6668084 91.5997194,22.343485 L91.5997194,35.3936112 L83.5823172,35.3936112 L83.5823172,11.3233785 L91.3081775,11.3233785 L91.3081775,14.6584108 L91.4053581,14.6584108 C91.6969015,14.1428476 92.0775218,13.6353478 92.5472306,13.135896 C93.0169393,12.6364443 93.5676241,12.2095 94.1993014,11.8550503 C94.8309786,11.5006007 95.5193346,11.2106008 96.2643898,10.9850419 C97.0094451,10.759483 97.803079,10.6467053 98.6453153,10.6467053 C100.265001,10.6467053 101.641713,10.9367052 102.775492,11.5167137 C103.909272,12.0967222 104.82438,12.8458886 105.520845,13.7642354 C106.21731,14.6825822 106.719405,15.7378597 107.027145,16.9300994 C107.334885,18.1223391 107.488753,19.3145609 107.488753,20.5068006 L107.488753,35.3936112 L99.4713507,35.3936112 Z" id="Gen"></path>
                            <path d="M26.8836327,25.4368483 C26.8836327,27.3057646 26.5030123,28.9249307 25.7417602,30.2943952 C24.9805081,31.6638598 23.9844166,32.7916372 22.7534558,33.6777613 C21.5224949,34.5638854 20.1376847,35.2244407 18.5989837,35.6594471 C17.0602826,36.0944535 15.4973097,36.3119534 13.9100181,36.3119534 C12.3551202,36.3119534 10.8407372,36.1347312 9.36682353,35.7802816 C7.89290989,35.425832 6.54859124,34.8861099 5.33382725,34.1610993 C4.11906326,33.4360886 3.05818528,32.5016445 2.15116151,31.3577388 C1.24413773,30.2138332 0.563880096,28.8363336 0.110368206,27.2251989 L7.6904576,25.2435131 C8.01439467,26.3713074 8.67845569,27.3621404 9.68266059,28.2160418 C10.6868655,29.0699432 11.9663977,29.4968875 13.5212956,29.4968875 C14.1043823,29.4968875 14.6955586,29.416332 15.2948422,29.2552185 C15.8941257,29.094105 16.4286139,28.8443829 16.8983226,28.5060446 C17.3680314,28.1677063 17.75675,27.7246509 18.0644902,27.1768651 C18.3722304,26.6290793 18.5260982,25.9524128 18.5260982,25.1468455 C18.5260982,24.2768327 18.3236406,23.551833 17.9187193,22.9718244 C17.5137979,22.3918159 16.9793098,21.9326494 16.3152388,21.5943111 C15.6511678,21.2559728 14.8980255,21.0143063 14.0557891,20.8693041 C13.2135527,20.724302 12.371329,20.651802 11.5290926,20.651802 L9.34252837,20.651802 L9.34252837,14.7067446 L11.7234539,14.7067446 C12.5009028,14.7067446 13.2459469,14.6503557 13.9586085,14.5375762 C14.67127,14.4247968 15.3110361,14.2153524 15.877926,13.9092368 C16.4448158,13.6031212 16.8983209,13.192288 17.2384548,12.6767249 C17.5785887,12.1611618 17.7486531,11.4844954 17.7486531,10.6467053 C17.7486531,9.4222429 17.3113447,8.48779877 16.4367146,7.84334487 C15.5620845,7.19889097 14.5578947,6.87666886 13.424115,6.87666886 C12.2579415,6.87666886 11.2456534,7.22305763 10.3872202,7.91584557 C9.52878696,8.60863351 8.9700039,9.53502209 8.71085425,10.6950391 L1.13076486,8.95502228 C1.55188304,7.50500102 2.18355084,6.24027921 3.0257872,5.16081894 C3.86802357,4.08135866 4.8641151,3.17913674 6.01409168,2.45412611 C7.16406826,1.72911547 8.41930555,1.18133788 9.77984122,0.810776887 C11.1403769,0.440215896 12.5332854,0.25493818 13.9586085,0.25493818 C15.4811127,0.25493818 16.9631025,0.448271449 18.4046224,0.834943787 C19.8461424,1.22161612 21.1337729,1.81772704 22.2675526,2.62329441 C23.4013323,3.42886178 24.3164408,4.43580589 25.0129055,5.64415694 C25.7093702,6.852508 26.0575973,8.27834086 26.0575973,9.92169829 C26.0575973,11.8228373 25.5150109,13.4258923 24.4298217,14.7309115 C23.3446325,16.0359306 21.9598223,16.9139859 20.2753496,17.3651036 L20.2753496,17.510105 C21.2471608,17.7356638 22.1379744,18.0981637 22.947817,18.5976155 C23.7576597,19.0970673 24.4541139,19.6931782 25.0372006,20.3859661 C25.6202874,21.0787541 26.0737924,21.8520871 26.3977295,22.7059885 C26.7216666,23.55989 26.8836327,24.4701674 26.8836327,25.4368483 Z" id="3"></path>
                        </g>
                        <path d="M7.85312943,52.9958048 L3.37537364,52.9958048 L3.37537364,42.8199634 L7.35560101,42.8199634 C8.04824208,42.8199634 8.64575799,42.9024563 9.14816665,43.0674445 C9.65057531,43.2324328 10.0285956,43.4556488 10.2822388,43.7370993 C10.7407477,44.2611796 10.9699987,44.8531874 10.9699987,45.5131403 C10.9699987,46.308966 10.7114816,46.9009737 10.1944397,47.2891813 C10.0188405,47.425054 9.89689849,47.5099731 9.82860993,47.5439413 C9.76032138,47.5779095 9.63837936,47.6337135 9.46278021,47.711355 C10.0968882,47.8472277 10.6017282,48.1311002 10.9773153,48.5629812 C11.3529023,48.9948622 11.540693,49.5310659 11.540693,50.1716085 C11.540693,50.8800874 11.296809,51.5060628 10.8090336,52.0495535 C10.2432141,52.6803909 9.25792259,52.9958048 7.85312943,52.9958048 Z M5.6581511,46.9397962 L6.74100708,46.9397962 C7.3751151,46.9397962 7.8458113,46.8718609 8.15310981,46.7359882 C8.46040831,46.6001156 8.61405526,46.306538 8.61405526,45.8552466 C8.61405526,45.4039552 8.47260251,45.1055251 8.18969278,44.9599472 C7.90678305,44.8143694 7.42877032,44.7415815 6.75564027,44.7415815 L5.6581511,44.7415815 L5.6581511,46.9397962 Z M5.6581511,51.0741867 L7.22390231,51.0741867 C7.87752135,51.0741867 8.36772828,50.9941201 8.6945378,50.8339845 C9.02134731,50.6738488 9.18474962,50.3584349 9.18474962,49.8877331 C9.18474962,49.4170314 9.01159195,49.1064699 8.66527142,48.9560395 C8.31895088,48.805609 7.76533411,48.7303949 7.00440448,48.7303949 L5.6581511,48.7303949 L5.6581511,51.0741867 Z M22.2037861,51.0741867 C22.8476496,51.0741867 23.3573673,50.8388394 23.7329543,50.3681376 C24.1085414,49.8974359 24.2963321,49.2544767 24.2963321,48.4392407 L24.2963321,42.8199634 L26.5791096,42.8199634 L26.5791096,48.5120292 C26.5791096,49.9872182 26.1693844,51.1202822 25.3499217,51.9112552 C24.530459,52.7022283 23.4817577,53.0977088 22.2037861,53.0977088 C20.9258146,53.0977088 19.8746743,52.699802 19.0503339,51.9039764 C18.2259935,51.1081507 17.8138294,49.977513 17.8138294,48.5120292 L17.8138294,42.8199634 L20.0966069,42.8199634 L20.0966069,48.4392407 C20.0966069,49.2544767 20.2868365,49.8974359 20.6673013,50.3681376 C21.0477661,50.8388394 21.5599226,51.0741867 22.2037861,51.0741867 Z M33.4522067,42.8199634 L35.7349842,42.8199634 L35.7349842,52.9958048 L33.4522067,52.9958048 L33.4522067,42.8199634 Z M42.7544132,52.9958048 L42.7544132,42.8199634 L45.0371907,42.8199634 L45.0371907,50.9722827 L49.397881,50.9722827 L49.397881,52.9958048 L42.7544132,52.9958048 Z M63.3827079,44.1519942 C64.3582587,45.0400191 64.8460268,46.2749861 64.8460268,47.8569321 C64.8460268,49.4388782 64.3704529,50.690829 63.4192909,51.6128221 C62.4681289,52.5348152 61.0170188,52.9958048 59.0659172,52.9958048 L55.5685851,52.9958048 L55.5685851,42.8199634 L59.1829827,42.8199634 C61.0072627,42.8199634 62.4071571,43.2639692 63.3827079,44.1519942 Z M61.7072078,50.2007239 C62.2681495,49.6766437 62.5486162,48.9147976 62.5486162,47.915163 C62.5486162,46.9155284 62.2681495,46.1464036 61.7072078,45.6077655 C61.1462661,45.0691274 60.2853554,44.7998124 59.12445,44.7998124 L57.8513625,44.7998124 L57.8513625,50.9868404 L59.3000482,50.9868404 C60.3438876,50.9868404 61.1462661,50.7248042 61.7072078,50.2007239 Z M78.6991551,42.8199634 L78.6991551,44.8434855 L73.6068053,44.8434855 L73.6068053,46.9397962 L78.1869935,46.9397962 L78.1869935,48.8759721 L73.6068053,48.8759721 L73.6068053,50.9868404 L78.8601202,50.9868404 L78.8601202,52.9958048 L71.3240279,52.9958048 L71.3240279,42.8199634 L78.6991551,42.8199634 Z M93.6936721,46.1973529 C93.6936721,47.8278249 93.0449405,48.8808222 91.7474579,49.3563766 L94.3375324,52.9958048 L91.5279601,52.9958048 L89.2598158,49.7494348 L87.6794314,49.7494348 L87.6794314,52.9958048 L85.396654,52.9958048 L85.396654,42.8199634 L89.274449,42.8199634 C90.8645968,42.8199634 91.9986576,43.0868522 92.6766654,43.6206376 C93.3546732,44.1544231 93.6936721,45.0133196 93.6936721,46.1973529 Z M90.9426326,47.405643 C91.2255423,47.1533081 91.366995,46.752975 91.366995,46.2046317 C91.366995,45.6562884 91.2206646,45.280218 90.9279994,45.0764089 C90.6353341,44.8725999 90.1231776,44.770697 89.3915145,44.770697 L87.6794314,44.770697 L87.6794314,47.7841436 L89.347615,47.7841436 C90.1280556,47.7841436 90.6597228,47.657978 90.9426326,47.405643 Z M102.930029,44.8507644 C102.71053,45.0303104 102.600782,45.268084 102.600782,45.5640923 C102.600782,45.8601006 102.734919,46.095448 103.003195,46.2701414 C103.271472,46.4448348 103.890937,46.6510671 104.86161,46.8888442 C105.832283,47.1266214 106.585885,47.4832818 107.122438,47.9588361 C107.658991,48.4343905 107.927263,49.1283012 107.927263,50.0405891 C107.927263,50.952877 107.583387,51.6928867 106.895623,52.2606403 C106.20786,52.828394 105.30305,53.1122666 104.181167,53.1122666 C102.561753,53.1122666 101.103326,52.5154063 99.8058434,51.3216678 L101.16673,49.6620886 C102.269102,50.6229024 103.288538,51.1033022 104.225066,51.1033022 C104.644553,51.1033022 104.973797,51.0135305 105.212807,50.8339845 C105.451817,50.6544384 105.57132,50.4118123 105.57132,50.1060988 C105.57132,49.8003853 105.4445,49.5577592 105.190857,49.3782132 C104.937214,49.1986671 104.434813,49.0166975 103.683638,48.8322989 C102.493466,48.5508484 101.6228,48.1844829 101.071614,47.7331916 C100.520428,47.2819002 100.244839,46.5734319 100.244839,45.6077655 C100.244839,44.642099 100.593593,43.8972368 101.291112,43.3731565 C101.988631,42.8490762 102.859297,42.58704 103.903136,42.58704 C104.586022,42.58704 105.268897,42.7035006 105.951783,42.9364251 C106.634668,43.1693497 107.229745,43.4993212 107.737032,43.9263496 L106.58101,45.5859289 C105.693259,44.9162708 104.776255,44.5814467 103.82997,44.5814467 C103.449506,44.5814467 103.149528,44.6712184 102.930029,44.8507644 Z" id="BUILDERS"></path>
                    </g>
                </g>
            </g>
        </g>
    </g>
</svg>